<svg width="618" height="618" viewBox="0 0 618 618" version="1.1" xmlns="http://www.w3.org/2000/svg" xmlns:xlink="http://www.w3.org/1999/xlink">
<g id="Canvas" fill="none">
<g id="Frame" clip-path="url(#clip0)">
<rect width="618" height="618" fill="white"/>
<g id="step3">
<g id="dog">
<path id="Ellipse" d="M 56.3925 30.0509C 63.1535 43.0761 62.0378 55.4576 31.6763 56.831C -4.47871 58.4664 -4.07018 48.6539 5.53032 28.2111C 11.917 14.6116 15.4312 0 31.6763 0C 47.9214 0 48.2219 14.31 56.3925 30.0509Z" transform="translate(213.302 323.9)" fill="#0078BF"/>
</g>
<g id="snake">
<ellipse id="Ellipse_2" cx="13.563" cy="18.191" rx="13.563" ry="18.191" transform="matrix(0.891319 -0.453451 0.452823 0.891563 179.514 301.784)" fill="#32B54F"/>
</g>
<g id="cat">
<ellipse id="Ellipse_3" cx="13.5612" cy="18.1932" rx="13.5612" ry="18.1932" transform="matrix(0.969449 0.245292 -0.244927 0.969542 260.974 275.552)" fill="#ED2A26"/>
</g>
<g id="parrot">
<ellipse id="Ellipse_4" cx="16.8042" cy="22.5451" rx="16.8042" ry="22.5451" transform="matrix(0.986567 -0.163356 0.163104 0.986609 211.662 270.515)" fill="#FFC31B"/>
</g>
<g id="bunny">
<ellipse id="Ellipse_5" cx="10.9308" cy="14.6582" rx="10.9308" ry="14.6582" transform="matrix(0.822598 0.568623 -0.568013 0.82302 288.174 304.685)" fill="#00BFBF"/>
</g>
</g>
<g id="step1">
<g id="dog_2">
<path id="Ellipse_6" d="M 37.5017 19.9833C 41.9978 28.6448 41.2558 36.8784 21.0651 37.7916C -2.97839 38.8792 -2.70672 32.354 3.67773 18.7599C 7.92494 9.71647 10.262 0 21.0651 0C 31.8683 0 32.0681 9.51588 37.5017 19.9833Z" transform="matrix(0.986144 -0.165889 0.165634 0.986187 349.948 508.788)" fill="#E0E0E0"/>
</g>
<g id="snake_2">
<ellipse id="Ellipse_7" cx="9.01947" cy="12.0968" rx="9.01947" ry="12.0968" transform="matrix(0.803872 -0.595032 0.594238 0.80412 325.354 498.012)" fill="#E0E0E0"/>
</g>
<g id="cat_2">
<ellipse id="Ellipse_8" cx="9.01832" cy="12.0982" rx="9.01832" ry="12.0982" transform="matrix(0.996646 0.0810726 -0.0809542 0.99678 375.886 471.822)" fill="#E0E0E0"/>
</g>
<g id="parrot_2">
<ellipse id="Ellipse_9" cx="11.1749" cy="14.9921" rx="11.1749" ry="14.9921" transform="matrix(0.945843 -0.324754 0.324267 0.945922 342.993 473.959)" fill="#E0E0E0"/>
</g>
<g id="bunny_2">
<ellipse id="Ellipse_10" cx="7.26899" cy="9.74761" rx="7.26899" ry="9.74761" transform="matrix(0.905392 0.424291 -0.423841 0.90587 396.933 487.927)" fill="#E0E0E0"/>
</g>
</g>
<g id="step2">
<g id="dog_3">
<path id="Ellipse_11" d="M 43.3857 23.1187C 48.5872 33.1392 47.7289 42.6646 24.3702 43.7211C -3.4457 44.9793 -3.1314 37.4303 4.25476 21.7033C 9.16836 11.241 11.8721 0 24.3702 0C 36.8684 0 37.0996 11.0089 43.3857 23.1187Z" transform="matrix(0.986144 -0.165889 0.165634 0.986187 428.893 358.09)" fill="#E0E0E0"/>
</g>
<g id="snake_3">
<ellipse id="Ellipse_12" cx="10.4346" cy="13.9948" rx="10.4346" ry="13.9948" transform="matrix(0.803872 -0.595032 0.594238 0.80412 400.44 345.622)" fill="#E0E0E0"/>
</g>
<g id="cat_3">
<ellipse id="Ellipse_13" cx="10.4333" cy="13.9964" rx="10.4333" ry="13.9964" transform="matrix(0.996646 0.0810726 -0.0809542 0.99678 458.901 315.324)" fill="#E0E0E0"/>
</g>
<g id="parrot_3">
<ellipse id="Ellipse_14" cx="12.9283" cy="17.3444" rx="12.9283" ry="17.3444" transform="matrix(0.945843 -0.324754 0.324267 0.945922 420.846 317.796)" fill="#E0E0E0"/>
</g>
<g id="bunny_3">
<ellipse id="Ellipse_15" cx="8.40949" cy="11.277" rx="8.40949" ry="11.277" transform="matrix(0.905392 0.424291 -0.423841 0.90587 483.249 333.956)" fill="#E0E0E0"/>
</g>
</g>
<g id="step4">
<g id="dog_4">
<path id="Ellipse_16" d="M 52.6699 28.0659C 58.9845 40.2307 57.9425 51.7944 29.5853 53.0771C -4.18306 54.6045 -3.80149 45.4401 5.16525 26.3476C 11.1303 13.6465 14.4126 0 29.5853 0C 44.7579 0 45.0386 13.3647 52.6699 28.0659Z" transform="matrix(0.986144 -0.165889 0.165634 0.986187 307.602 156.326)" fill="#E0E0E0"/>
</g>
<g id="snake_4">
<ellipse id="Ellipse_17" cx="12.6676" cy="16.9896" rx="12.6676" ry="16.9896" transform="matrix(0.803872 -0.595032 0.594238 0.80412 273.06 141.191)" fill="#E0E0E0"/>
</g>
<g id="cat_4">
<ellipse id="Ellipse_18" cx="12.6659" cy="16.9915" rx="12.6659" ry="16.9915" transform="matrix(0.996646 0.0810726 -0.0809543 0.99678 344.032 104.409)" fill="#E0E0E0"/>
</g>
<g id="parrot_4">
<ellipse id="Ellipse_19" cx="15.6948" cy="21.0559" rx="15.6948" ry="21.0559" transform="matrix(0.945843 -0.324754 0.324267 0.945922 297.834 107.41)" fill="#E0E0E0"/>
</g>
<g id="bunny_4">
<ellipse id="Ellipse_20" cx="10.2091" cy="13.6902" rx="10.2091" ry="13.6902" transform="matrix(0.905392 0.424291 -0.423841 0.90587 373.591 127.027)" fill="#E0E0E0"/>
</g>
</g>
<g id="step5">
<g id="dog_5">
<path id="Ellipse_21" d="M 35.0146 18.658C 39.2125 26.7451 38.5197 34.4326 19.6681 35.2853C -2.78087 36.3007 -2.52721 30.2083 3.43382 17.5157C 7.39936 9.07208 9.58138 0 19.6681 0C 29.7548 0 29.9414 8.88478 35.0146 18.658Z" transform="matrix(0.986144 -0.165889 0.165634 0.986187 138.13 84.6139)" fill="#E0E0E0"/>
</g>
<g id="snake_5">
<ellipse id="Ellipse_22" cx="8.4213" cy="11.2946" rx="8.4213" ry="11.2946" transform="matrix(0.803872 -0.595032 0.594238 0.80412 115.166 74.552)" fill="#E0E0E0"/>
</g>
<g id="cat_5">
<ellipse id="Ellipse_23" cx="8.42023" cy="11.2959" rx="8.42023" ry="11.2959" transform="matrix(0.996646 0.0810726 -0.0809542 0.99678 162.348 50.0997)" fill="#E0E0E0"/>
</g>
<g id="parrot_5">
<ellipse id="Ellipse_24" cx="10.4338" cy="13.9978" rx="10.4338" ry="13.9978" transform="matrix(0.945843 -0.324754 0.324267 0.945922 131.636 52.0947)" fill="#E0E0E0"/>
</g>
<g id="bunny_5">
<ellipse id="Ellipse_25" cx="6.78691" cy="9.10114" rx="6.78691" ry="9.10114" transform="matrix(0.905392 0.424291 -0.423841 0.90587 181.998 65.1365)" fill="#E0E0E0"/>
</g>
</g>
</g>
</g>
<defs>
<clipPath id="clip0">
<rect width="618" height="618" fill="white"/>
</clipPath>
</defs>
</svg>
