<svg width="2836" height="802" viewBox="0 0 2836 802" version="1.1" xmlns="http://www.w3.org/2000/svg" xmlns:xlink="http://www.w3.org/1999/xlink">
<g id="Canvas" fill="none">
<g id="logo-simple">
<g id="Canvas_2">
<g id="Frame 5.2">
<g id="Vector">
<path d="M 1418 0L 0 0L 0 401L 1418 401L 1418 0Z" transform="scale(2)" fill="white"/>
</g>
<g id="Ani&#195;&#162;&#194;&#128;&#194;&#153;">
<g id="Vector_2">
<path d="M 107.2 106.6L 32.8 106.6L 17 143.2L -9.53674e-08 143.2L 62.6 0.799998L 77 0.799998L 139.6 143.2L 122.8 143.2L 107.2 106.6ZM 101.4 93L 70 19.8L 38.6 93L 101.4 93ZM 209.075 40.2C 233.208 40.2 245.275 53.467 245.275 80L 245.275 143.2L 229.075 143.2L 229.075 80.8C 229.075 71.467 227.208 64.667 223.475 60.4C 219.742 56 213.875 53.8 205.875 53.8C 196.542 53.8 189.075 56.667 183.475 62.4C 177.875 68.133 175.075 75.867 175.075 85.6L 175.075 143.2L 158.875 143.2L 158.875 70.8C 158.875 60.4 158.342 51 157.275 42.6L 172.675 42.6L 174.275 60.6C 177.342 54.067 181.942 49.067 188.075 45.6C 194.208 42 201.208 40.2 209.075 40.2ZM 275.867 42.6L 292.067 42.6L 292.067 143.2L 275.867 143.2L 275.867 42.6ZM 294.067 -7.62939e-07L 294.067 18.4L 274.267 18.4L 274.267 -7.62939e-07L 294.067 -7.62939e-07Z" transform="translate(7.19995 256) scale(2)" fill="#4F4F4F"/>
</g>
<g id="Vector_3">
<path d="M 20.6 -1.52588e-06L 20.6 14.6C 20.6 20.2 19.667 25.3333 17.8 30C 15.934 34.6667 12.8 39.2667 8.39999 43.8L 0.799986 37.8C 5.99999 31.8 8.934 26.0667 9.6 20.6L -1.95312e-06 20.6L -1.95312e-06 -1.52588e-06L 20.6 -1.52588e-06Z" transform="translate(648.646 257.6) scale(2)" fill="#32B54F"/>
</g>
</g>
<g id="Meaux">
<g id="Vector_4">
<path d="M 134.6 -1.52588e-06L 134.6 142.4L 119.4 142.4L 119.4 36.6L 73.2 142.4L 61.6 142.4L 15 37.4L 15.2 142.4L 3.8147e-07 142.4L 3.8147e-07 -1.52588e-06L 13.6 -1.52588e-06L 67.6 122.8L 121 -1.52588e-06L 134.6 -1.52588e-06ZM 251.927 91.6L 178.127 91.6C 178.26 104.4 181.193 114.067 186.927 120.6C 192.793 127.133 201.26 130.4 212.327 130.4C 224.06 130.4 234.86 126.467 244.727 118.6L 250.127 130.4C 245.727 134.533 240.06 137.8 233.127 140.2C 226.327 142.6 219.327 143.8 212.127 143.8C 196.393 143.8 184.06 139.2 175.127 130C 166.193 120.667 161.727 107.933 161.727 91.8C 161.727 81.533 163.727 72.467 167.727 64.6C 171.727 56.6 177.327 50.4 184.527 46C 191.727 41.6 199.927 39.4 209.127 39.4C 222.46 39.4 232.927 43.8 240.527 52.6C 248.127 61.267 251.927 73.267 251.927 88.6L 251.927 91.6ZM 209.327 52C 200.927 52 194.06 54.533 188.727 59.6C 183.527 64.667 180.193 71.8 178.727 81L 237.327 81C 236.527 71.533 233.727 64.333 228.927 59.4C 224.26 54.467 217.727 52 209.327 52ZM 365.116 41.8L 365.116 142.4L 349.116 142.4L 349.116 124.2C 346.182 130.467 341.716 135.333 335.716 138.8C 329.849 142.133 322.982 143.8 315.116 143.8C 306.182 143.8 298.316 141.667 291.516 137.4C 284.849 133.133 279.649 127.133 275.916 119.4C 272.316 111.533 270.516 102.4 270.516 92C 270.516 81.6 272.382 72.467 276.116 64.6C 279.849 56.6 285.049 50.4 291.716 46C 298.516 41.6 306.316 39.4 315.116 39.4C 322.982 39.4 329.849 41.1333 335.716 44.6C 341.582 48.067 346.049 52.933 349.116 59.2L 349.116 41.8L 365.116 41.8ZM 318.316 130.4C 328.182 130.4 335.782 127.067 341.116 120.4C 346.449 113.6 349.116 104 349.116 91.6C 349.116 79.2 346.449 69.667 341.116 63C 335.782 56.333 328.182 53 318.316 53C 308.449 53 300.716 56.467 295.116 63.4C 289.649 70.2 286.916 79.733 286.916 92C 286.916 104.267 289.649 113.733 295.116 120.4C 300.582 127.067 308.316 130.4 318.316 130.4ZM 480.638 41.8L 480.638 142.4L 464.837 142.4L 464.837 125C 461.638 131.133 457.171 135.8 451.437 139C 445.704 142.2 439.237 143.8 432.038 143.8C 420.171 143.8 411.171 140.467 405.037 133.8C 398.904 127.133 395.838 117.267 395.838 104.2L 395.838 41.8L 412.038 41.8L 412.038 103.8C 412.038 112.867 413.904 119.533 417.638 123.8C 421.371 128.067 427.038 130.2 434.637 130.2C 443.571 130.2 450.771 127.333 456.238 121.6C 461.704 115.733 464.438 108.067 464.438 98.6L 464.438 41.8L 480.638 41.8ZM 600.867 142.4L 581.467 142.4L 549.667 102.8L 518.267 142.4L 498.467 142.4L 540.267 90.6L 500.867 41.8L 520.467 41.8L 549.667 78.8L 578.867 41.8L 598.667 41.8L 559.467 90.6L 600.867 142.4Z" transform="translate(749.2 257.6) scale(2)" fill="#4F4F4F"/>
</g>
</g>
<g id="logo">
<g id="dog">
<g id="Ellipse">
<g id="Vector_5">
<path d="M 190.08 101.284C 212.869 145.183 209.108 186.914 106.77 191.543C -15.0962 197.055 -13.7192 163.983 18.6409 95.0825C 40.1682 49.2469 52.0135 0 106.77 0C 161.527 0 162.54 48.2302 190.08 101.284Z" transform="translate(2210.04 396.866) scale(2)" fill="#0078BF"/>
</g>
</g>
</g>
<g id="snake">
<g id="Ellipse 2">
<g id="Vector_6">
<path d="M 45.7155 122.624C 70.9635 122.624 91.431 95.1737 91.431 61.312C 91.431 27.4503 70.9635 0 45.7155 0C 20.4675 0 0 27.4503 0 61.312C 0 95.1737 20.4675 122.624 45.7155 122.624Z" transform="matrix(1.78266 -0.90684 0.905708 1.7831 1982.25 247.782)" fill="#32B54F"/>
</g>
</g>
</g>
<g id="cat">
<g id="Ellipse 3">
<g id="Vector_7">
<path d="M 45.71 122.637C 70.9549 122.637 91.42 95.1841 91.42 61.3187C 91.42 27.4533 70.9549 0 45.71 0C 20.4651 0 0 27.4533 0 61.3187C 0 95.1841 20.4651 122.637 45.71 122.637Z" transform="matrix(1.93891 0.490548 -0.48989 1.93907 2531.4 70.9614)" fill="#ED2A26"/>
</g>
</g>
</g>
<g id="parrot">
<g id="Ellipse 4">
<g id="Vector_8">
<path d="M 56.641 151.972C 87.923 151.972 113.282 117.952 113.282 75.986C 113.282 34.0201 87.923 0 56.641 0C 25.359 0 0 34.0201 0 75.986C 0 117.952 25.359 151.972 56.641 151.972Z" transform="matrix(1.97314 -0.326688 0.326234 1.97321 2198.98 37.0078)" fill="#FFC31B"/>
</g>
</g>
</g>
<g id="bunny">
<g id="Ellipse 5">
<g id="Vector_9">
<path d="M 36.843 98.8106C 57.1908 98.8106 73.686 76.6911 73.686 49.4053C 73.686 22.1195 57.1908 0 36.843 0C 16.4952 0 0 22.1195 0 49.4053C 0 76.6911 16.4952 98.8106 36.843 98.8106Z" transform="matrix(1.64524 1.13719 -1.13609 1.646 2714.76 267.342)" fill="#00BFBF"/>
</g>
</g>
</g>
</g>
</g>
</g>
</g>
</g>
</svg>

