<svg width="1600" height="1600" viewBox="0 0 1600 1600" fill="none" xmlns="http://www.w3.org/2000/svg">
<path d="M282.24 150.283C316.078 215.422 310.494 277.341 158.537 284.21C-22.4156 292.388 -20.3709 243.316 27.6788 141.082C59.6437 73.0721 77.2322 0 158.537 0C239.843 0 241.347 71.5636 282.24 150.283Z" transform="translate(506.53 792.866) scale(2)" fill="#0078BF"/>
<ellipse cx="67.8695" cy="90.9879" rx="67.8695" ry="90.9879" transform="translate(168.314 571.647) scale(2) rotate(-26.9451)" fill="#32B54F"/>
<ellipse cx="67.8695" cy="90.988" rx="67.8695" ry="90.988" transform="translate(983.723 309.292) scale(2) rotate(14.1883)" fill="#ED2A26"/>
<ellipse cx="84.1018" cy="112.749" rx="84.1018" ry="112.749" transform="translate(490.117 258.912) scale(2) rotate(-9.39442)" fill="#FFC31B"/>
<ellipse cx="54.6937" cy="73.324" rx="54.6937" ry="73.324" transform="translate(1255.99 600.679) scale(2) rotate(34.633)" fill="#00BFBF"/>
<path d="M282.24 150.283C316.078 215.422 310.494 277.341 158.537 284.21C-22.4156 292.388 -20.3709 243.316 27.6788 141.082C59.6437 73.0721 77.2322 0 158.537 0C239.843 0 241.347 71.5636 282.24 150.283Z" transform="translate(506.53 792.866) scale(2)" fill="#0078BF"/>
<ellipse cx="67.8695" cy="90.9879" rx="67.8695" ry="90.9879" transform="translate(168.314 571.647) scale(2) rotate(-26.9451)" fill="#32B54F"/>
<ellipse cx="67.8695" cy="90.988" rx="67.8695" ry="90.988" transform="translate(983.723 309.292) scale(2) rotate(14.1883)" fill="#ED2A26"/>
<ellipse cx="84.1018" cy="112.749" rx="84.1018" ry="112.749" transform="translate(490.117 258.912) scale(2) rotate(-9.39442)" fill="#FFC31B"/>
<ellipse cx="54.6937" cy="73.324" rx="54.6937" ry="73.324" transform="translate(1255.99 600.679) scale(2) rotate(34.633)" fill="#00BFBF"/>
</svg>
