<svg width="76" height="78" viewBox="0 0 76 78" fill="none" xmlns="http://www.w3.org/2000/svg">
<ellipse cx="11.8863" cy="15.782" rx="11.8863" ry="15.782" transform="matrix(1.65992 1.11565 -1.15764 1.63091 36.5396 0)" fill="#00BFBF"/>
<path d="M3.82748 24.5697C3.64078 26.5448 4.09198 28.4712 4.34093 29.1874C4.649 30.3762 8.26177 33.2566 13.4896 29.6447C17.6718 26.7551 18.3128 21.9484 18.1105 19.9062C17.4726 19.8757 15.9167 19.8788 14.7965 20.1348C14.6098 18.9918 14.0963 16.9801 13.3495 15.2884C12.6027 13.5968 13.3495 10.3963 13.5829 8.93328C13.8163 7.47023 16.3368 0.703598 14.0963 2.02949C11.8559 3.35539 9.61539 8.79612 9.47536 11.2193C8.69119 9.97571 8.52627 4.36124 8.54183 1.70945C8.51071 0.9322 8.32711 -0.466846 7.84168 0.154952C5.19044 3.95889 5.83458 10.1525 6.48805 12.7738C5.53896 13.0329 3.37005 13.8162 2.28716 14.8769C0.933533 16.2028 0 19.0375 0 20.912C0 22.7866 2.52054 23.8382 3.82748 24.5697Z" transform="translate(22.1956 13.082) scale(2)" fill="white"/>
<path fill-rule="evenodd" clip-rule="evenodd" d="M0 1.78814e-06C0 0.38541 0.227173 0.697846 0.507446 0.697846L0.52002 0.697636C0.666016 0.69276 0.796753 0.603054 0.887085 0.462989L0.888 0.461555L0.888916 0.462996C0.979248 0.603039 1.10999 0.692737 1.25598 0.697636L1.26862 0.697847C1.54883 0.697847 1.776 0.38541 1.776 0H1.276C1.276 0.0453197 1.26971 0.0843679 1.26062 0.11644L1.18597 1.66893e-06L0.590027 1.19209e-07L0.515381 0.116439C0.506287 0.0843699 0.5 0.0453228 0.5 1.78814e-06H0Z" transform="translate(20.8319 54.9529) scale(2)" fill="#00BFBF"/>
<ellipse cx="1.68036" cy="1.50878" rx="1.68036" ry="1.50878" transform="translate(32.371 45.3048) scale(2)" fill="#00BFBF"/>
<ellipse cx="0.532785" cy="0.523383" rx="0.532785" ry="0.523383" transform="translate(33.6188 47.2765) scale(2)" fill="white"/>
<path d="M0.537629 0.853915C0.731877 0.48962 1.25402 0.48962 1.44827 0.853915C1.63154 1.19763 1.38247 1.6127 0.99295 1.6127C0.603428 1.6127 0.354356 1.19763 0.537629 0.853915Z" transform="matrix(-1.99687 -0.111858 0.116569 -1.9966 24.7974 55.979)" fill="#00BFBF"/>
<path d="M0.078086 9.53162C-0.0403109 7.32177 -0.288625 2.22035 1.70044 0.405949C3.68951 -1.40846 0.966065 3.07652 0.078086 9.53162Z" transform="translate(46.4056 17.2691) scale(2)" fill="#00BFBF"/>
<path d="M0 8.53228C1.25278 5.93004 1.91483 4.67083 2.08786 2.71158C2.22695 1.13658 2.00947 -0.102757 1.91359 0.00673545C1.60061 3.32791 0.763175 6.12399 0 8.53228Z" transform="matrix(-1.96251 -0.38541 -0.398835 1.95983 41.8673 18.2656)" fill="#00BFBF"/>
</svg>
