<svg width="48" height="60" viewBox="0 0 48 60" fill="none" xmlns="http://www.w3.org/2000/svg">
<ellipse cx="10.7788" cy="14.3273" rx="10.7788" ry="14.3273" transform="matrix(1.94011 0.485757 -0.494716 1.93785 10.1759 -4)" fill="#ED2A26"/>
<path d="M3.40698 3.70038C4.23526 4.18303 5.03155 4.82658 5.03155 4.82658C6.61327 3.73966 10.7271 3.08425 12.5431 3.37028L13.8043 3.53949C13.8043 3.53949 15.4211 1.76404 16.761 0.624366C18.5771 -0.92021 18.6357 0.795986 18.6943 1.53967C18.7411 2.18038 18.2842 6.53571 18.0499 8.63328C18.0108 9.70114 17.7101 12.2373 16.8196 13.8391C18.6357 14.64 19.0457 15.3837 20.6275 17.3287C17.2531 22.1798 9.41873 22.2103 5.92332 21.6192C5.86474 20.9708 5.74758 19.2966 5.74758 17.7863C5.74758 15.8985 4.86884 15.4981 4.40019 14.926C3.93153 14.3539 2.58414 11.4936 2.58414 9.83462C2.06861 9.05661 0.924304 6.00178 0.41659 4.57162C0.221316 4.0949 -0.3577 1.79635 0.320282 1.93063C1.13257 2.09152 2.22407 3.01107 3.40698 3.70038Z" transform="translate(5.66418 16.1121) scale(2)" fill="white"/>
<path d="M2.76178 6.27455C1.94949 4.98746 0.688056 4.24826 0 3.70038C0.137611 2.67766 2.59932 0.852261 3.57407 0C3.28738 1.46102 2.89939 4.37523 2.76178 6.27455Z" transform="translate(34.2568 17.3992) scale(2)" fill="#ED2A26"/>
<path d="M2.43865 6.52533C1.31138 4.75637 0.663361 4.36816 0 3.83462C0.132672 2.83869 2.52085 0.829946 3.46061 0C3.43764 1.78631 2.7252 4.35494 2.43865 6.52533Z" transform="matrix(-1.97224 0.332093 0.338427 1.97116 13.7889 20.459)" fill="#ED2A26"/>
<ellipse cx="1.17165" cy="1.14413" rx="1.17165" ry="1.14413" transform="translate(30.3176 34.4514) scale(2)" fill="#ED2A26"/>
<ellipse cx="0.64983" cy="0.643544" rx="0.64983" ry="0.643544" transform="translate(31.0077 35.4185) scale(2)" fill="white"/>
<ellipse cx="1.17165" cy="1.14413" rx="1.17165" ry="1.14413" transform="translate(17.6639 35.8243) scale(2)" fill="#ED2A26"/>
<ellipse cx="0.64983" cy="0.643544" rx="0.64983" ry="0.643544" transform="translate(18.6609 36.7056) scale(2)" fill="white"/>
<path d="M0.84945 0.601164C1.0747 0.300653 1.52542 0.300653 1.75067 0.601164C2.02895 0.972427 1.76404 1.50206 1.30006 1.50206C0.836078 1.50206 0.571167 0.972427 0.84945 0.601164Z" transform="translate(29.8367 43.4497) scale(2) rotate(180)" fill="#ED2A26"/>
<path d="M0 0.605531C0.930439 0.756914 1.46212 0.435982 1.46212 0C1.51835 0.605531 2.39256 0.605531 2.92424 0.454148" transform="translate(24.5093 43.7845) scale(2)" stroke="#ED2A26"/>
<path d="M0 0.482804C0.595501 0.536449 2.07884 0.514991 3.24819 0" transform="matrix(1.96949 0.348007 -0.354626 1.96831 32.7803 41.2585)" stroke="#ED2A26" stroke-width="0.5"/>
<path d="M0 0.482977C0.65993 0.536641 2.30376 0.515175 3.59962 0" transform="matrix(1.9328 0.514102 -0.523509 1.93027 32.6376 42.5408)" stroke="#ED2A26" stroke-width="0.5"/>
<path d="M0 0.4834C0.532687 0.537111 1.85956 0.515626 2.90556 0" transform="matrix(1.83945 0.785121 -0.7981 1.83386 32.6151 43.668)" stroke="#ED2A26" stroke-width="0.5"/>
<path d="M0 0.482804C0.595501 0.536449 2.07884 0.514991 3.24819 0" transform="matrix(-1.96949 0.348007 0.354626 1.96831 22.2264 41.8539)" stroke="#ED2A26" stroke-width="0.5"/>
<path d="M0 0.482977C0.65993 0.536641 2.30376 0.515175 3.59962 0" transform="matrix(-1.9328 0.514102 0.523509 1.93027 22.3691 43.1361)" stroke="#ED2A26" stroke-width="0.5"/>
<path d="M0 0.4834C0.532687 0.537111 1.85956 0.515626 2.90556 0" transform="matrix(-1.83945 0.785121 0.7981 1.83386 22.3916 44.2633)" stroke="#ED2A26" stroke-width="0.5"/>
</svg>
