<svg width="80" height="68" viewBox="0 0 80 68" fill="none" xmlns="http://www.w3.org/2000/svg">
<path d="M32.5273 17C36.4271 24.3684 35.7835 31.3727 18.271 32.1497C-2.58333 33.0748 -2.34769 27.5238 3.1899 15.9592C6.87375 8.26589 8.90078 0 18.271 0C27.6412 0 27.8145 8.09524 32.5273 17Z" transform="scale(2)" fill="#0078BF"/>
<path d="M6.05039 3.67686C7.57339 0.521473 10.833 0.588739 12.2724 1.0168C15.5041 0.0628407 19.098 0.619315 20.491 1.0168C21.3578 0.756904 23.3791 0.218776 24.5307 0.145395C25.9701 0.0536685 29.4526 -0.909459 30.6134 3.67686C31.7742 8.26318 33.7708 12.5743 35.0709 14.3171C36.3711 16.0599 40.7822 17.2524 37.9498 19.8207C35.6839 21.8754 33.1672 20.4628 32.1921 19.4997C31.1241 18.2614 28.9789 15.3628 28.9418 13.675C28.9047 11.9873 27.6262 8.04916 26.9916 6.29107C27.7036 7.30006 29.2854 9.92343 29.9169 12.345C30.7062 15.372 31.5885 16.4727 36.2782 17.9862C31.1706 16.1517 30.5205 11.336 30.1955 9.73081C29.8705 8.1256 28.431 6.10761 27.3631 5.46553C26.2951 4.82344 25.0414 4.5024 22.8127 1.61302C23.7785 2.8605 24.2056 9.44034 24.2985 12.5743C24.1747 12.4367 23.5463 11.9139 22.0233 10.9233C22.9984 11.7029 24.3914 14.8216 25.0414 16.4727C25.6915 18.1238 24.995 24.5446 20.491 23.1687C16.8878 22.068 16.1418 18.0015 16.2192 16.1058C15.7858 17.711 14.4919 21.1966 12.7832 22.2973C10.6472 23.6732 9.34713 22.2973 7.39695 20.5545C5.44677 18.8117 6.46829 15.8765 7.39695 14.8216C9.14282 12.8403 9.9198 10.6022 10.0901 9.73081C9.9198 10.113 9.30998 11.0884 8.23274 11.9322C8.90137 8.52002 10.0901 4.60942 10.6008 3.08064C9.98171 3.44755 8.47419 4.7042 7.39695 6.79556C6.0504 9.40977 5.6325 11.1067 3.86805 14.3171C5.61393 13.143 7.50529 8.81354 8.23274 6.79556C8.38752 8.46193 8.25131 12.2991 6.46829 14.3171C4.05378 16.9222 4.62645 19.3162 5.2146 20.1876C5.41581 20.524 5.23318 21.4168 2.89296 22.2973C-0.589506 23.7191 -0.17161 20.2335 0.339151 18.3531C0.849913 16.4727 2.42863 13.5375 3.35729 11.336C4.00735 8.40077 4.14665 7.6211 6.05039 3.67686Z" transform="translate(2.23816 10.1769) scale(2)" fill="white"/>
<path d="M1.45925 0C1.03207 0.887284 0.342752 1.52703 0.0514914 1.73599C-0.0294144 3.24695 -0.0747216 6.4521 0.391295 7.18508C0.973817 8.10129 2.52721 8.53529 4.12914 7.47441C5.73107 6.41352 4.56603 4.05065 4.12914 2.79688C3.0806 2.17963 2.33303 0.8037 2.09032 0.192888C2.21976 1.65562 2.40099 5.05366 2.09032 6.94397C2.1874 5.54553 1.8476 2.07355 1.45925 0Z" transform="translate(30.5151 51.8095) scale(2)" fill="white"/>
<path d="M0 1.04299C0 2.14497 1.36093 3.93197 2.7521 3.93197C5.11104 3.93197 5.65541 2.02584 5.65541 1.04299C5.65541 0.0601335 3.56865 0.000566966 2.7521 0.000566966C1.93554 0.000566966 0 -0.0589999 0 1.04299Z" transform="translate(28.1588 32.8436) scale(2)" fill="#0078BF"/>
<ellipse cx="1.78163" cy="2.67853" rx="1.78163" ry="2.67853" transform="matrix(1.94865 0.450311 -0.46334 1.94559 28.2844 15.7279)" fill="#0078BF"/>
<ellipse cx="1.02868" cy="1.54652" rx="1.02868" ry="1.54652" transform="matrix(1.94865 0.450311 -0.46334 1.94559 29.8234 19.3925)" fill="white"/>
<ellipse cx="1.78163" cy="2.67853" rx="1.78163" ry="2.67853" transform="matrix(1.94865 0.450311 -0.46334 1.94559 38.1814 15.7279)" fill="#0078BF"/>
<ellipse cx="1.02868" cy="1.54652" rx="1.02868" ry="1.54652" transform="matrix(1.94865 0.450311 -0.46334 1.94559 39.7203 19.3925)" fill="white"/>
</svg>
