<svg width="62" height="76" viewBox="0 0 62 76" fill="none" xmlns="http://www.w3.org/2000/svg">
<ellipse cx="13.2687" cy="17.8017" rx="13.2687" ry="17.8017" transform="matrix(1.97313 -0.326711 0.32621 1.97322 -0.104858 4.67007)" fill="#FFC31B"/>
<path d="M6.48287 9.29292C7.1086 9.83387 9.72324 13.1998 10.9524 14.8151L14.4162 19.5485C14.4907 19.6236 14.595 20.1571 14.4162 21.6898C14.3045 24.6199 15.4218 26.9866 16.0923 28.5644C16.6286 29.8266 17.5821 29.9168 17.9918 29.8041C18.029 29.9543 18.1035 30.4577 18.1035 31.2691C25.6123 32.892 32.2569 29.9168 34.6406 28.2263C34.6034 28.0385 34.283 26.7387 33.2998 23.0421C32.0707 18.4215 30.2829 16.9564 29.2772 16.5056C28.2716 16.0548 26.1486 14.9278 24.696 13.8009C23.2434 12.6739 21.3439 11.4342 18.1035 9.63101C19.3326 8.27862 19.1092 7.26434 19.7796 4.78497C19.3326 5.95704 17.88 6.47545 17.2096 6.58814C17.5076 6.43788 18.1035 5.8218 18.1035 4.55957C18.1035 3.29734 17.2841 2.3056 16.8744 1.9675C16.8372 2.75639 16.6509 4.53703 16.204 5.34846C15.757 4.26655 15.6453 1.36644 15.6453 0.0516268C15.4218 1.62941 14.8631 4.78497 14.4162 4.78497C13.8575 4.78497 13.9692 5.01037 13.2988 2.6437C12.6284 0.277024 9.83498 -0.17377 10.3937 0.0516268C10.9523 0.277024 12.0697 1.51671 12.0697 3.54528C12.0697 5.57386 11.1758 4.78497 11.1758 6.70085C11.1758 4.55957 8.04718 2.6437 5.25376 1.74211C8.82934 3.77068 8.60587 6.02465 8.60587 7.60244C7.37676 5.79926 4.24812 4.78497 1.00775 4.78497C3.51066 4.78497 5.40274 6.58815 6.03592 7.48974C5.70071 7.03894 4.5163 6.13735 2.46033 6.13735C0.404372 6.13735 -0.0351269 7.64 0.00211879 8.39133C0.113856 7.94053 0.784278 7.03894 2.57207 7.03894C4.80681 7.03894 5.70071 8.61672 6.48287 9.29292Z" transform="matrix(1.96331 0.381329 -0.377769 1.964 3.98962 2.4567)" fill="white"/>
<path d="M0.0892879 0.858414C-0.312966 3.38286 0.741088 4.91556 1.3184 5.36636C1.15079 4.40842 1.3184 4.23937 1.3184 3.67588C2.10056 3.90128 3.27379 3.78858 3.32966 2.37985C3.38553 0.971112 1.70947 0.182222 1.3184 0.125873C0.927318 0.0695234 0.256894 -0.381271 0.0892879 0.858414Z" transform="matrix(1.96331 0.381329 -0.377769 1.964 19.9081 35.3478)" fill="white"/>
<path d="M1.3184 5.36636C0.741088 4.91556 -0.312966 3.38286 0.0892879 0.858414C0.256894 -0.381271 0.927318 0.0695234 1.3184 0.125873C1.70947 0.182222 3.38553 0.971112 3.32966 2.37985C3.27379 3.78858 2.10056 3.90128 1.3184 3.67588C1.3184 4.23937 1.15079 4.40842 1.3184 5.36636Z" transform="matrix(1.96331 0.381329 -0.377769 1.964 19.9081 35.3478)" stroke="#FFC31B"/>
<ellipse cx="1.1418" cy="1.14736" rx="1.1418" ry="1.14736" transform="translate(26.254 29.9934) scale(2)" fill="#FFC31B"/>
<ellipse cx="0.570899" cy="0.76491" rx="0.570899" ry="0.76491" transform="translate(27.0151 30.7583) scale(2)" fill="white"/>
<path d="M1.69235 5.5456C0.784901 3.67527 -0.0600742 1.46608 0.00335901 0C0.00335901 3.63332 3.59535 6.11928 3.21475 7.07542C2.91027 7.84033 2.07295 8.98769 1.12145 9.7526C2.26324 8.60102 2.62014 7.45787 1.69235 5.5456Z" transform="translate(43.8021 45.2916) scale(2)" fill="#FFC31B"/>
<path d="M0.187954 4.207C0.492433 5.73682 0.568548 6.11928 0.18795 7.84033C0.505116 7.13916 1.02527 6.04279 0.568548 4.207C0.111829 2.37122 0.124517 0.637425 0.18795 0C-0.00234938 0.76491 -0.116525 2.67718 0.187954 4.207Z" transform="translate(28.1617 48.3513) scale(2)" fill="#FFC31B"/>
<path d="M0.380599 0C0.0761198 0.305964 0 0.892395 0 1.14736C0 1.21111 0.0761198 1.33859 0.380599 1.33859C0.1903 1.14736 0.1903 0.76491 0.380599 0Z" transform="translate(20.9258 40.3197) scale(2)" fill="#FFC31B"/>
</svg>
