<?xml version="1.0" standalone="no"?>
<!DOCTYPE svg PUBLIC "-//W3C//DTD SVG 20010904//EN"
 "http://www.w3.org/TR/2001/REC-SVG-20010904/DTD/svg10.dtd">
<svg version="1.0" xmlns="http://www.w3.org/2000/svg"
 width="1600.000000pt" height="1600.000000pt" viewBox="0 0 1600.000000 1600.000000"
 preserveAspectRatio="xMidYMid meet">
<metadata>
Created by potrace 1.11, written by Peter Selinger 2001-2013
</metadata>
<g transform="translate(0.000000,1600.000000) scale(0.100000,-0.100000)"
fill="#000000" stroke="none">
<path d="M6768 13705 c-1 -1 -46 -6 -98 -9 -103 -6 -114 -8 -205 -31 -33 -9
-64 -17 -70 -18 -41 -10 -155 -59 -227 -97 -356 -186 -649 -559 -803 -1023
-44 -131 -89 -314 -100 -405 -4 -26 -8 -54 -10 -62 -27 -101 -27 -601 -1 -770
1 -8 6 -42 10 -75 33 -245 140 -588 257 -826 27 -55 49 -104 49 -109 0 -4 3
-10 8 -12 4 -1 18 -23 31 -48 37 -68 137 -217 195 -290 73 -93 92 -114 181
-204 252 -255 534 -415 850 -481 146 -30 391 -29 528 4 365 86 668 308 900
661 67 103 179 333 222 460 36 103 89 305 100 379 3 20 8 48 10 61 36 176 40
575 10 815 -54 414 -215 870 -414 1170 -25 38 -48 74 -50 80 -2 5 -8 14 -13
20 -4 5 -22 28 -39 50 -132 175 -272 318 -414 425 -33 25 -62 48 -65 51 -15
18 -217 130 -290 161 -101 43 -229 84 -290 93 -25 4 -47 8 -50 10 -4 2 -47 7
-96 10 -49 4 -94 8 -101 10 -6 2 -13 2 -15 0z"/>
<path d="M10818 12605 c-2 -2 -25 -5 -53 -9 -55 -6 -61 -8 -155 -30 -99 -24
-262 -96 -370 -165 -122 -78 -304 -241 -407 -366 -47 -57 -165 -226 -189 -270
-6 -11 -24 -45 -41 -75 -67 -120 -180 -401 -197 -492 -2 -13 -9 -36 -16 -53
-6 -16 -11 -31 -10 -33 1 -1 -4 -26 -9 -55 -16 -73 -18 -85 -26 -147 -4 -30
-9 -63 -10 -72 -9 -47 -16 -166 -17 -278 0 -160 6 -223 37 -405 8 -48 52 -217
65 -250 5 -11 18 -47 31 -80 147 -388 454 -686 799 -775 138 -36 315 -44 443
-20 92 17 91 17 107 22 8 3 47 16 85 28 255 82 540 298 738 560 31 41 60 80
64 85 44 54 153 253 216 395 66 148 151 453 172 615 20 161 25 394 12 535 -28
314 -146 644 -309 868 -56 78 -221 240 -288 283 -147 96 -287 152 -440 175
-44 6 -227 13 -232 9z"/>
<path d="M3175 10994 c-332 -67 -596 -270 -760 -587 -50 -97 -107 -266 -130
-382 -28 -148 -38 -417 -21 -565 8 -66 34 -218 42 -242 4 -15 8 -32 19 -83 8
-38 73 -230 100 -295 280 -681 859 -1193 1451 -1286 85 -13 281 -12 354 1 119
22 127 24 198 51 291 109 508 326 635 634 33 80 73 210 83 269 3 14 7 33 9 41
2 8 7 41 10 73 4 32 8 68 11 80 6 32 6 284 0 337 -3 25 -8 63 -10 85 -29 244
-105 494 -227 741 -116 235 -251 426 -429 605 -126 126 -158 155 -240 214 -30
22 -57 42 -60 45 -7 8 -96 62 -172 103 -56 32 -218 102 -258 113 -196 53 -217
56 -375 59 -108 2 -183 -2 -230 -11z"/>
<path d="M12927 9524 c-1 -1 -36 -5 -77 -8 -71 -6 -222 -38 -265 -55 -116 -47
-189 -80 -235 -104 -413 -219 -773 -685 -896 -1157 -41 -160 -53 -267 -49
-435 4 -218 46 -375 144 -545 46 -79 200 -242 256 -272 17 -8 50 -27 75 -40
217 -119 505 -131 797 -33 157 52 284 121 428 229 410 309 678 769 740 1271 8
59 8 269 0 305 -3 14 -8 45 -11 70 -26 189 -127 390 -265 529 -101 101 -268
195 -381 215 -15 2 -31 7 -36 10 -10 6 -219 25 -225 20z"/>
<path d="M7941 8055 c-438 -58 -779 -224 -1087 -530 -116 -116 -185 -198 -278
-330 -31 -44 -60 -85 -65 -90 -17 -22 -131 -216 -131 -225 0 -4 -3 -10 -7 -12
-11 -4 -30 -40 -143 -268 -127 -254 -174 -357 -365 -800 -34 -80 -74 -170 -88
-200 -13 -30 -39 -89 -57 -130 -18 -41 -51 -113 -73 -160 -115 -245 -119 -256
-247 -545 -12 -27 -32 -78 -45 -113 -14 -34 -31 -77 -39 -95 -70 -152 -199
-585 -221 -737 -4 -24 -8 -48 -11 -51 -8 -13 -18 -187 -16 -287 1 -99 17 -199
46 -292 66 -216 234 -398 486 -526 41 -21 77 -39 80 -39 3 -1 19 -7 35 -14 55
-24 198 -71 275 -91 139 -36 194 -48 355 -75 11 -2 58 -9 105 -15 47 -6 101
-13 120 -15 19 -3 62 -7 95 -10 33 -3 79 -7 103 -9 308 -28 1226 -29 1622 -1
273 19 281 20 470 40 29 3 109 13 165 20 32 5 188 30 370 60 33 6 155 34 240
55 44 11 91 23 104 26 13 3 39 11 57 19 19 8 34 12 34 10 0 -6 227 76 319 114
160 67 384 201 489 294 117 102 215 224 281 347 41 77 96 229 106 292 3 18 9
57 14 87 9 59 7 314 -4 371 -3 19 -10 60 -16 90 -20 116 -39 192 -86 330 -53
157 -102 270 -233 535 -133 271 -210 430 -210 438 0 3 -15 38 -34 79 -40 87
-141 331 -261 628 -47 118 -92 229 -100 245 -7 17 -25 59 -40 95 -14 36 -32
79 -39 95 -8 17 -26 59 -42 95 -103 236 -260 520 -371 668 -257 344 -575 543
-978 611 -33 5 -76 13 -95 16 -75 14 -484 13 -589 0z"/>
</g>
</svg>
